<svg width="24" height="24" viewBox="0 0 24 24" fill="none" xmlns="http://www.w3.org/2000/svg">
<path d="M18.71 8.21C18.617 8.11627 18.5064 8.04188 18.3846 7.99111C18.2627 7.94034 18.132 7.9142 18 7.9142C17.868 7.9142 17.7373 7.94034 17.6154 7.99111C17.4936 8.04188 17.383 8.11627 17.29 8.21L12.71 12.79C12.617 12.8837 12.5064 12.9581 12.3846 13.0089C12.2627 13.0597 12.132 13.0858 12 13.0858C11.868 13.0858 11.7373 13.0597 11.6154 13.0089C11.4936 12.9581 11.383 12.8837 11.29 12.79L6.71 8.21C6.61704 8.11627 6.50644 8.04188 6.38458 7.99111C6.26272 7.94034 6.13201 7.9142 6 7.9142C5.86799 7.9142 5.73728 7.94034 5.61542 7.99111C5.49356 8.04188 5.38296 8.11627 5.29 8.21C5.10375 8.39736 4.99921 8.65081 4.99921 8.915C4.99921 9.17918 5.10375 9.43264 5.29 9.62L9.88 14.21C10.4425 14.7718 11.205 15.0874 12 15.0874C12.795 15.0874 13.5575 14.7718 14.12 14.21L18.71 9.62C18.8962 9.43264 19.0008 9.17918 19.0008 8.915C19.0008 8.65081 18.8962 8.39736 18.71 8.21Z" fill="white"/>
</svg>
