<svg width="24" height="24" viewBox="0 0 24 24" fill="none" xmlns="http://www.w3.org/2000/svg">
<path d="M0.879985 14.09L4.74998 18C4.84295 18.0938 4.95355 18.1681 5.07541 18.2189C5.19727 18.2697 5.32797 18.2958 5.45998 18.2958C5.592 18.2958 5.7227 18.2697 5.84456 18.2189C5.96642 18.1681 6.07702 18.0938 6.16998 18C6.26371 17.9071 6.33811 17.7965 6.38888 17.6746C6.43964 17.5527 6.46578 17.422 6.46578 17.29C6.46578 17.158 6.43964 17.0273 6.38888 16.9054C6.33811 16.7836 6.26371 16.673 6.16998 16.58L2.60998 13H23C23.2652 13 23.5196 12.8947 23.7071 12.7071C23.8946 12.5196 24 12.2652 24 12C24 11.7348 23.8946 11.4805 23.7071 11.2929C23.5196 11.1054 23.2652 11 23 11H2.54998L6.16998 7.38002C6.34727 7.19405 6.44618 6.94696 6.44618 6.69002C6.44618 6.43308 6.34727 6.186 6.16998 6.00002C6.07702 5.90629 5.96642 5.8319 5.84456 5.78113C5.7227 5.73036 5.592 5.70422 5.45998 5.70422C5.32797 5.70422 5.19727 5.73036 5.07541 5.78113C4.95355 5.8319 4.84295 5.90629 4.74998 6.00002L0.879985 9.85002C0.318183 10.4125 0.00262451 11.175 0.00262451 11.97C0.00262451 12.765 0.318183 13.5275 0.879985 14.09Z" fill="white"/>
</svg>
