<svg width="24" height="24" viewBox="0 0 24 24" fill="none" xmlns="http://www.w3.org/2000/svg">
<path d="M23.1225 9.91004L19.2525 6.00004C19.1595 5.90631 19.0489 5.83192 18.927 5.78115C18.8052 5.73038 18.6745 5.70424 18.5425 5.70424C18.4104 5.70424 18.2797 5.73038 18.1579 5.78115C18.036 5.83192 17.9254 5.90631 17.8325 6.00004C17.7387 6.093 17.6643 6.2036 17.6136 6.32546C17.5628 6.44732 17.5367 6.57803 17.5367 6.71004C17.5367 6.84205 17.5628 6.97275 17.6136 7.09461C17.6643 7.21647 17.7387 7.32708 17.8325 7.42004L21.3925 11L1.00246 11C0.73724 11 0.482885 11.1054 0.295349 11.2929C0.107812 11.4805 0.00245609 11.7348 0.00245611 12C0.00245614 12.2653 0.107812 12.5196 0.295349 12.7071C0.482885 12.8947 0.73724 13 1.00246 13L21.4525 13L17.8325 16.62C17.6552 16.806 17.5563 17.0531 17.5563 17.31C17.5563 17.567 17.6552 17.8141 17.8325 18C17.9254 18.0938 18.036 18.1682 18.1579 18.2189C18.2797 18.2697 18.4104 18.2958 18.5425 18.2958C18.6745 18.2958 18.8052 18.2697 18.927 18.2189C19.0489 18.1682 19.1595 18.0938 19.2525 18L23.1225 14.15C23.6843 13.5875 23.9998 12.825 23.9998 12.03C23.9998 11.235 23.6843 10.4725 23.1225 9.91004Z" fill="white"/>
</svg>
