<svg width="24" height="24" viewBox="0 0 24 24" fill="none" xmlns="http://www.w3.org/2000/svg">
<g clip-path="url(#clip0_9_29)">
<path d="M23.1224 9.91002L19.2524 6.00002C19.1595 5.90629 19.0489 5.8319 18.927 5.78113C18.8052 5.73036 18.6745 5.70422 18.5424 5.70422C18.4104 5.70422 18.2797 5.73036 18.1579 5.78113C18.036 5.8319 17.9254 5.90629 17.8324 6.00002C17.7387 6.09299 17.6643 6.20359 17.6135 6.32545C17.5628 6.44731 17.5366 6.57801 17.5366 6.71002C17.5366 6.84203 17.5628 6.97274 17.6135 7.0946C17.6643 7.21646 17.7387 7.32706 17.8324 7.42002L21.3924 11L1.00244 11C0.737224 11 0.482869 11.1054 0.295333 11.2929C0.107797 11.4805 0.00244083 11.7348 0.00244086 12C0.00244088 12.2652 0.107797 12.5196 0.295333 12.7071C0.48287 12.8947 0.737224 13 1.00244 13L21.4524 13L17.8324 16.62C17.6552 16.806 17.5563 17.0531 17.5563 17.31C17.5563 17.567 17.6552 17.814 17.8324 18C17.9254 18.0938 18.036 18.1681 18.1579 18.2189C18.2797 18.2697 18.4104 18.2958 18.5424 18.2958C18.6745 18.2958 18.8052 18.2697 18.927 18.2189C19.0489 18.1681 19.1595 18.0938 19.2524 18L23.1224 14.15C23.6842 13.5875 23.9998 12.825 23.9998 12.03C23.9998 11.235 23.6842 10.4725 23.1224 9.91002Z" fill="white"/>
</g>
<defs>
<clipPath id="clip0_9_29">
<rect width="24" height="24" fill="white"/>
</clipPath>
</defs>
</svg>
