<svg width="24" height="24" viewBox="0 0 24 24" fill="none" xmlns="http://www.w3.org/2000/svg">
<g clip-path="url(#clip0_9_5)">
<path d="M22.555 13.662L20.655 6.826C20.0981 4.82334 18.8878 3.06429 17.2164 1.82847C15.545 0.592656 13.5084 -0.0490104 11.4305 0.00546976C9.35253 0.0599499 7.35242 0.80745 5.74808 2.12915C4.14373 3.45085 3.02722 5.27091 2.57601 7.3L1.10501 13.915C0.942528 14.6459 0.946284 15.404 1.11601 16.1333C1.28573 16.8626 1.61708 17.5445 2.08559 18.1286C2.55411 18.7126 3.14783 19.184 3.82292 19.508C4.49801 19.8319 5.23724 20 5.98601 20H7.10001C7.32953 21.1303 7.94274 22.1465 8.83575 22.8764C9.72877 23.6063 10.8467 24.005 12 24.005C13.1534 24.005 14.2713 23.6063 15.1643 22.8764C16.0573 22.1465 16.6705 21.1303 16.9 20H17.738C18.5088 20.0001 19.2692 19.8219 19.9598 19.4794C20.6503 19.137 21.2524 18.6395 21.7188 18.0259C22.1853 17.4122 22.5036 16.699 22.6488 15.942C22.794 15.185 22.7613 14.4047 22.555 13.662ZM12 22C11.3818 21.9974 10.7794 21.8039 10.2753 21.4459C9.77124 21.0879 9.3901 20.5829 9.18401 20H14.816C14.6099 20.5829 14.2288 21.0879 13.7247 21.4459C13.2206 21.8039 12.6183 21.9974 12 22ZM20.126 16.815C19.8474 17.1847 19.4863 17.4843 19.0716 17.69C18.6569 17.8957 18.1999 18.0018 17.737 18H5.98601C5.5368 17.9999 5.09333 17.899 4.68835 17.7046C4.28337 17.5102 3.92722 17.2273 3.64617 16.8769C3.36513 16.5265 3.16637 16.1174 3.06457 15.6798C2.96277 15.2423 2.96053 14.7875 3.05801 14.349L4.52801 7.733C4.88237 6.13921 5.75932 4.70961 7.01947 3.67145C8.27962 2.6333 9.85064 2.04618 11.4828 2.00342C13.1149 1.96066 14.7145 2.46472 16.0273 3.43547C17.3401 4.40622 18.2907 5.78795 18.728 7.361L20.628 14.197C20.7536 14.6424 20.7736 15.1109 20.6864 15.5653C20.5993 16.0198 20.4074 16.4477 20.126 16.815Z" fill="white"/>
</g>
<defs>
<clipPath id="clip0_9_5">
<rect width="24" height="24" fill="white"/>
</clipPath>
</defs>
</svg>
