<svg width="24" height="24" viewBox="0 0 24 24" fill="none" xmlns="http://www.w3.org/2000/svg">
<g clip-path="url(#clip0_9_73)">
<path d="M23.621 6.83601L22.269 4.01001C21.92 3.28001 21.279 2.71401 20.511 2.45801L14.214 0.359014C12.786 -0.116986 11.214 -0.116986 9.786 0.359014L3.49 2.45801C2.721 2.71401 2.08 3.28101 1.731 4.01201L0.445 6.71901C-0.0320005 7.51101 -0.122 8.46101 0.198 9.32801C0.506999 10.168 1.162 10.818 2 11.124L1.995 17.438C1.993 19.596 3.367 21.504 5.413 22.186L9.778 23.641C10.492 23.879 11.242 23.998 11.992 23.998C12.742 23.998 13.492 23.879 14.206 23.641L18.575 22.184C20.618 21.503 21.992 19.599 21.994 17.445L21.999 11.125C22.845 10.828 23.507 10.179 23.818 9.33501C24.135 8.47701 24.047 7.53601 23.621 6.83601ZM10.419 2.25701C11.439 1.91701 12.562 1.91701 13.581 2.25701L17.829 3.67301L12.007 5.62301L6.173 3.67301L10.419 2.25701ZM2.204 7.66601L3.531 4.88401C3.579 4.90901 10.588 7.25701 10.588 7.25701L8.967 10.515C8.728 10.913 8.232 11.097 7.794 10.949L2.713 9.25601C2.416 9.15701 2.183 8.93101 2.074 8.63701C1.965 8.34301 1.996 8.02101 2.203 7.66701L2.204 7.66601ZM6.045 20.289C4.817 19.88 3.993 18.735 3.994 17.441L3.999 11.793L7.161 12.847C8.505 13.295 9.953 12.76 10.72 11.476L10.998 10.919L10.993 21.9C10.796 21.86 10.602 21.809 10.412 21.745L6.046 20.29L6.045 20.289ZM17.942 20.288L13.572 21.745C13.382 21.808 13.188 21.86 12.991 21.9L12.996 10.905L13.315 11.545C13.871 12.473 14.847 13.004 15.876 13.004C16.195 13.004 16.519 12.953 16.836 12.847L19.997 11.794L19.992 17.445C19.992 18.737 19.166 19.88 17.94 20.289L17.942 20.288ZM21.942 8.64401C21.837 8.92901 21.611 9.14802 21.323 9.24401L16.205 10.95C15.767 11.097 15.271 10.915 15.069 10.585L13.414 7.26201C13.414 7.26201 20.42 4.91101 20.468 4.88501L21.861 7.78601C22.018 8.04701 22.047 8.36001 21.942 8.64501V8.64401Z" fill="white"/>
</g>
<defs>
<clipPath id="clip0_9_73">
<rect width="24" height="24" fill="white"/>
</clipPath>
</defs>
</svg>
