<svg width="24" height="24" viewBox="0 0 24 24" fill="none" xmlns="http://www.w3.org/2000/svg">
<g clip-path="url(#clip0_9_73)">
<path d="M23.621 6.83601L22.269 4.01001C21.92 3.28001 21.279 2.71401 20.511 2.45801L14.214 0.359014C12.786 -0.116986 11.214 -0.116986 9.78598 0.359014L3.48998 2.45801C2.72098 2.71401 2.07998 3.28101 1.73098 4.01201L0.444984 6.71901C-0.0320157 7.51101 -0.122016 8.46101 0.197984 9.32801C0.506984 10.168 1.16198 10.818 1.99998 11.124L1.99498 17.438C1.99298 19.596 3.36698 21.504 5.41298 22.186L9.77798 23.641C10.492 23.879 11.242 23.998 11.992 23.998C12.742 23.998 13.492 23.879 14.206 23.641L18.575 22.184C20.618 21.503 21.992 19.599 21.994 17.445L21.999 11.125C22.845 10.828 23.507 10.179 23.818 9.33501C24.135 8.47701 24.047 7.53601 23.621 6.83601ZM10.419 2.25701C11.439 1.91701 12.562 1.91701 13.581 2.25701L17.829 3.67301L12.007 5.62301L6.17298 3.67301L10.419 2.25701ZM2.20398 7.66601L3.53098 4.88401C3.57898 4.90901 10.588 7.25701 10.588 7.25701L8.96698 10.515C8.72798 10.913 8.23198 11.097 7.79398 10.949L2.71298 9.25601C2.41598 9.15701 2.18298 8.93101 2.07398 8.63701C1.96498 8.34301 1.99598 8.02101 2.20298 7.66701L2.20398 7.66601ZM6.04498 20.289C4.81698 19.88 3.99298 18.735 3.99398 17.441L3.99898 11.793L7.16098 12.847C8.50498 13.295 9.95298 12.76 10.72 11.476L10.998 10.919L10.993 21.9C10.796 21.86 10.602 21.809 10.412 21.745L6.04598 20.29L6.04498 20.289ZM17.942 20.288L13.572 21.745C13.382 21.808 13.188 21.86 12.991 21.9L12.996 10.905L13.315 11.545C13.871 12.473 14.847 13.004 15.876 13.004C16.195 13.004 16.519 12.953 16.836 12.847L19.997 11.794L19.992 17.445C19.992 18.737 19.166 19.88 17.94 20.289L17.942 20.288ZM21.942 8.64401C21.837 8.92901 21.611 9.14801 21.323 9.24401L16.205 10.95C15.767 11.097 15.271 10.915 15.069 10.585L13.414 7.26201C13.414 7.26201 20.42 4.91101 20.468 4.88501L21.861 7.78601C22.018 8.04701 22.047 8.36001 21.942 8.64501V8.64401Z" fill="white"/>
</g>
<defs>
<clipPath id="clip0_9_73">
<rect width="24" height="24" fill="white"/>
</clipPath>
</defs>
</svg>
