<svg width="24" height="24" viewBox="0 0 24 24" fill="none" xmlns="http://www.w3.org/2000/svg">
<g clip-path="url(#clip0_9_41)">
<path d="M18.214 9.098C18.601 9.492 18.595 10.125 18.2 10.512L13.774 14.857C12.991 15.625 11.983 16.008 10.974 16.008C9.976 16.008 8.978 15.632 8.198 14.879L6.299 13.012C5.905 12.625 5.9 11.992 6.287 11.598C6.673 11.203 7.308 11.198 7.701 11.586L9.594 13.447C10.37 14.197 11.595 14.193 12.375 13.429L16.8 9.085C17.193 8.697 17.824 8.704 18.214 9.098ZM24 12C24 18.617 18.617 24 12 24C5.383 24 0 18.617 0 12C0 5.383 5.383 0 12 0C18.617 0 24 5.383 24 12ZM22 12C22 6.486 17.514 2 12 2C6.486 2 2 6.486 2 12C2 17.514 6.486 22 12 22C17.514 22 22 17.514 22 12Z" fill="white"/>
</g>
<defs>
<clipPath id="clip0_9_41">
<rect width="24" height="24" fill="white"/>
</clipPath>
</defs>
</svg>
