<svg width="24" height="24" viewBox="0 0 24 24" fill="none" xmlns="http://www.w3.org/2000/svg">
<path d="M8.70901 4.7908C8.61528 4.88376 8.54088 4.99436 8.49011 5.11622C8.43935 5.23808 8.41321 5.36878 8.41321 5.50079C8.41321 5.63281 8.43935 5.76351 8.49011 5.88537C8.54088 6.00723 8.61528 6.11783 8.70901 6.21079L13.289 10.7908C13.3827 10.8838 13.4571 10.9944 13.5079 11.1162C13.5587 11.2381 13.5848 11.3688 13.5848 11.5008C13.5848 11.6328 13.5587 11.7635 13.5079 11.8854C13.4571 12.0072 13.3827 12.1178 13.289 12.2108L8.70901 16.7908C8.61528 16.8838 8.54088 16.9944 8.49011 17.1162C8.43935 17.2381 8.41321 17.3688 8.41321 17.5008C8.41321 17.6328 8.43935 17.7635 8.49011 17.8854C8.54088 18.0072 8.61528 18.1178 8.70901 18.2108C8.89637 18.397 9.14982 18.5016 9.41401 18.5016C9.67819 18.5016 9.93164 18.397 10.119 18.2108L14.709 13.6208C15.2708 13.0583 15.5864 12.2958 15.5864 11.5008C15.5864 10.7058 15.2708 9.9433 14.709 9.38079L10.119 4.7908C9.93164 4.60454 9.67819 4.5 9.41401 4.5C9.14982 4.5 8.89637 4.60454 8.70901 4.7908Z" fill="white"/>
</svg>
