<svg width="24" height="24" viewBox="0 0 24 24" fill="none" xmlns="http://www.w3.org/2000/svg">
<g clip-path="url(#clip0_22_10)">
<path d="M12 0C5.383 0 0 5.383 0 12C0 18.617 5.383 24 12 24C18.617 24 24 18.617 24 12C24 5.383 18.617 0 12 0ZM8 21.164V21C8 18.794 9.794 17 12 17C14.206 17 16 18.794 16 21V21.164C14.774 21.701 13.422 22 12 22C10.578 22 9.226 21.701 8 21.164ZM17.925 20.051C17.469 17.192 14.986 15 12 15C9.014 15 6.532 17.192 6.075 20.051C3.605 18.228 2 15.298 2 12C2 6.486 6.486 2 12 2C17.514 2 22 6.486 22 12C22 15.298 20.395 18.228 17.925 20.051ZM12 5C9.794 5 8 6.794 8 9C8 11.206 9.794 13 12 13C14.206 13 16 11.206 16 9C16 6.794 14.206 5 12 5ZM12 11C10.897 11 10 10.103 10 9C10 7.897 10.897 7 12 7C13.103 7 14 7.897 14 9C14 10.103 13.103 11 12 11Z" fill="white"/>
</g>
<defs>
<clipPath id="clip0_22_10">
<rect width="24" height="24" fill="white"/>
</clipPath>
</defs>
</svg>
