<svg width="24" height="24" viewBox="0 0 24 24" fill="none" xmlns="http://www.w3.org/2000/svg">
<g clip-path="url(#clip0_9_14)">
<path d="M23.9 11.437C23.5071 8.41242 21.9772 5.65093 19.6214 3.71384C17.2655 1.77675 14.2604 0.809409 11.2169 1.00845C8.17341 1.20748 5.3199 2.55796 3.23637 4.78538C1.15285 7.0128 -0.00434127 9.95 1.30188e-05 13C-0.00575138 14.6325 0.325071 16.2487 0.971828 17.7476C1.61858 19.2466 2.56739 20.5961 3.75901 21.712C4.67035 22.5558 5.87117 23.0169 7.11301 23H16.88C18.192 23.0031 19.4525 22.4898 20.389 21.571C21.7237 20.2724 22.7363 18.6798 23.3459 16.9202C23.9555 15.1607 24.1453 13.2829 23.9 11.437ZM18.991 20.137C18.4284 20.6913 17.6698 21.0014 16.88 21H7.11301C6.38229 21.015 5.67351 20.7499 5.13201 20.259C4.13929 19.3291 3.34884 18.2046 2.80997 16.9557C2.2711 15.7068 1.99538 14.3602 2.00001 13C2.001 11.5922 2.29879 10.2005 2.87395 8.9156C3.44912 7.6307 4.28873 6.48151 5.33801 5.543C7.16116 3.8989 9.53105 2.99237 11.986 3C12.3783 3.00016 12.7702 3.0222 13.16 3.066C15.0356 3.28383 16.8112 4.02856 18.2809 5.21392C19.7507 6.39928 20.8547 7.97677 21.4648 9.76369C22.075 11.5506 22.1665 13.4738 21.7287 15.3106C21.2909 17.1473 20.3417 18.8225 18.991 20.142V20.137ZM7.80701 17.285C7.99664 17.4706 8.10476 17.724 8.10757 17.9894C8.11038 18.2548 8.00766 18.5104 7.82201 18.7C7.63636 18.8896 7.38298 18.9977 7.11762 19.0006C6.85226 19.0034 6.59664 18.9006 6.40701 18.715C5.27197 17.6032 4.49371 16.1786 4.17142 14.6227C3.84914 13.0669 3.99743 11.4503 4.5974 9.97912C5.19737 8.50789 6.22183 7.24864 7.54021 6.36188C8.85859 5.47512 10.4112 5.00101 12 5C12.3825 4.99989 12.7644 5.02696 13.143 5.081C13.273 5.09974 13.3981 5.14392 13.511 5.21102C13.624 5.27811 13.7226 5.36679 13.8013 5.47201C13.8799 5.57723 13.9371 5.69691 13.9695 5.82423C14.0018 5.95154 14.0088 6.08399 13.99 6.214C13.9728 6.34473 13.9296 6.47069 13.863 6.58448C13.7964 6.69828 13.7077 6.7976 13.6021 6.87661C13.4965 6.95562 13.3762 7.01272 13.2483 7.04456C13.1203 7.0764 12.9873 7.08233 12.857 7.062C11.6055 6.88324 10.3295 7.10436 9.21111 7.6938C8.09271 8.28325 7.18908 9.21089 6.62917 10.3444C6.06926 11.4778 5.88167 12.7592 6.09319 14.0056C6.30471 15.252 6.90451 16.3997 7.80701 17.285ZM19.919 11.857C19.9731 12.2356 20.0001 12.6176 20 13C20.0033 14.0657 19.7917 15.1211 19.378 16.1032C18.9642 17.0852 18.3568 17.9739 17.592 18.716C17.4021 18.9016 17.1463 19.0043 16.8807 19.0013C16.6151 18.9983 16.3617 18.8899 16.176 18.7C15.9904 18.5101 15.8877 18.2542 15.8907 17.9887C15.8938 17.7231 16.0021 17.4697 16.192 17.284C16.8677 16.6254 17.3779 15.8163 17.681 14.9228C17.9841 14.0293 18.0715 13.0767 17.936 12.143C17.8981 11.8803 17.9661 11.6133 18.125 11.4007C18.2839 11.1882 18.5208 11.0474 18.7835 11.0095C19.0462 10.9716 19.3132 11.0396 19.5258 11.1985C19.7384 11.3574 19.8791 11.5943 19.917 11.857H19.919ZM13.926 12.488C14.0464 12.9208 14.02 13.3812 13.851 13.7974C13.6821 14.2136 13.3801 14.5621 12.9921 14.7885C12.6042 15.0149 12.1522 15.1065 11.7067 15.0489C11.2613 14.9913 10.8474 14.7878 10.5298 14.4702C10.2122 14.1526 10.0087 13.7388 9.95111 13.2933C9.89353 12.8478 9.9851 12.3958 10.2115 12.0079C10.4379 11.62 10.7865 11.3179 11.2026 11.149C11.6188 10.98 12.0793 10.9537 12.512 11.074L16.293 7.293C16.3853 7.19749 16.4956 7.12131 16.6176 7.0689C16.7396 7.01649 16.8708 6.9889 17.0036 6.98775C17.1364 6.98659 17.2681 7.0119 17.391 7.06218C17.5139 7.11246 17.6255 7.18671 17.7194 7.2806C17.8133 7.3745 17.8876 7.48615 17.9378 7.60905C17.9881 7.73194 18.0134 7.86362 18.0123 7.9964C18.0111 8.12918 17.9835 8.2604 17.9311 8.3824C17.8787 8.50441 17.8025 8.61475 17.707 8.707L13.926 12.488Z" fill="white"/>
</g>
<defs>
<clipPath id="clip0_9_14">
<rect width="24" height="24" fill="white"/>
</clipPath>
</defs>
</svg>
