<svg width="24" height="24" viewBox="0 0 24 24" fill="none" xmlns="http://www.w3.org/2000/svg">
<g clip-path="url(#clip0_22_15)">
<path d="M12 0C5.383 0 0 5.383 0 12C0 18.617 5.383 24 12 24C18.617 24 24 18.617 24 12C24 5.383 18.617 0 12 0ZM12 22C6.486 22 2 17.514 2 12C2 10.506 2.33 9.088 2.92 7.813L4.586 9.564C4.851 9.842 5.218 10 5.602 10H7.551C7.839 10 8.115 10.114 8.319 10.318L8.692 10.691C8.89 10.889 9.001 11.157 9.001 11.436V12.399C9.001 12.784 9.154 13.152 9.426 13.424L10.616 14.614C10.863 14.861 11.002 15.196 11.002 15.545V17.91C11.002 18.512 11.49 19 12.092 19H12.305C12.73 19 13.116 18.753 13.294 18.367L15.535 13.511C15.802 12.933 15.597 12.248 15.058 11.91L12.496 10.309C12.173 10.107 11.8 10 11.419 10H9.988C9.677 10 9.378 9.876 9.158 9.656L8.566 9.064C8.254 8.752 8.254 8.247 8.566 7.936L9.095 7.407C9.338 7.164 9.709 7.104 10.016 7.258L10.896 7.698C11.257 7.879 11.694 7.808 11.98 7.522L11.983 7.519C12.288 7.214 12.346 6.741 12.124 6.372L11.287 4.976C11.112 4.684 11.116 4.322 11.301 4.036C11.597 3.579 12.081 2.834 12.617 2.02C15.889 2.22 18.742 4 20.418 6.606L18.828 7.523C18.338 7.805 18.095 8.378 18.233 8.926L18.86 11.433C18.95 11.793 19.193 12.095 19.525 12.26L21.898 13.438C21.199 18.273 17.027 22 12.002 22H12Z" fill="white"/>
</g>
<defs>
<clipPath id="clip0_22_15">
<rect width="24" height="24" fill="white"/>
</clipPath>
</defs>
</svg>
