<svg width="24" height="24" viewBox="0 0 24 24" fill="none" xmlns="http://www.w3.org/2000/svg">
<g clip-path="url(#clip0_26_9)">
<path d="M23.271 9.41897C22.3682 7.9407 21.2295 6.62023 19.9 5.50997L22.7 2.70997C22.8822 2.52137 22.983 2.26877 22.9807 2.00657C22.9784 1.74437 22.8732 1.49356 22.6878 1.30815C22.5024 1.12274 22.2516 1.01758 21.9894 1.0153C21.7272 1.01302 21.4746 1.11381 21.286 1.29597L18.241 4.34497C16.3534 3.22379 14.1954 2.63943 12 2.65497C5.809 2.65497 2.281 6.89297 0.728998 9.41897C0.249526 10.1945 -0.00444794 11.0882 -0.00444794 12C-0.00444794 12.9117 0.249526 13.8055 0.728998 14.581C1.63175 16.0592 2.77049 17.3797 4.1 18.49L1.3 21.29C1.20449 21.3822 1.12831 21.4926 1.0759 21.6146C1.02349 21.7366 0.995901 21.8678 0.994747 22.0006C0.993594 22.1333 1.0189 22.265 1.06918 22.3879C1.11946 22.5108 1.19371 22.6225 1.2876 22.7164C1.3815 22.8103 1.49315 22.8845 1.61604 22.9348C1.73894 22.9851 1.87062 23.0104 2.0034 23.0092C2.13618 23.0081 2.2674 22.9805 2.3894 22.9281C2.51141 22.8757 2.62175 22.7995 2.714 22.704L5.766 19.652C7.65126 20.773 9.80667 21.3583 12 21.345C18.191 21.345 21.719 17.107 23.271 14.581C23.7505 13.8055 24.0044 12.9117 24.0044 12C24.0044 11.0882 23.7505 10.1945 23.271 9.41897ZM2.433 13.534C2.14813 13.073 1.99725 12.5418 1.99725 12C1.99725 11.4581 2.14813 10.9269 2.433 10.466C3.767 8.29997 6.782 4.65497 12 4.65497C13.6603 4.64567 15.2972 5.04581 16.766 5.81997L14.753 7.83297C13.7929 7.19557 12.6419 6.90997 11.4952 7.02462C10.3486 7.13927 9.27686 7.64711 8.462 8.46197C7.64714 9.27684 7.13929 10.3485 7.02464 11.4952C6.90999 12.6419 7.1956 13.7929 7.833 14.753L5.523 17.063C4.2981 16.0727 3.25284 14.8789 2.433 13.534ZM15 12C15 12.7956 14.6839 13.5587 14.1213 14.1213C13.5587 14.6839 12.7956 15 12 15C11.5545 14.9982 11.1152 14.8957 10.715 14.7L14.7 10.715C14.8957 11.1152 14.9983 11.5545 15 12ZM9 12C9 11.2043 9.31607 10.4413 9.87868 9.87865C10.4413 9.31604 11.2043 8.99997 12 8.99997C12.4455 9.0017 12.8848 9.10426 13.285 9.29997L9.3 13.285C9.10429 12.8848 9.00172 12.4455 9 12ZM21.567 13.534C20.233 15.7 17.218 19.345 12 19.345C10.3397 19.3543 8.70276 18.9541 7.234 18.18L9.247 16.167C10.2071 16.8044 11.3581 17.09 12.5048 16.9753C13.6514 16.8607 14.7231 16.3528 15.538 15.538C16.3529 14.7231 16.8607 13.6514 16.9754 12.5047C17.09 11.3581 16.8044 10.207 16.167 9.24697L18.477 6.93697C19.7019 7.92725 20.7472 9.12102 21.567 10.466C21.8519 10.9269 22.0027 11.4581 22.0027 12C22.0027 12.5418 21.8519 13.073 21.567 13.534Z" fill="white"/>
</g>
<defs>
<clipPath id="clip0_26_9">
<rect width="24" height="24" fill="white"/>
</clipPath>
</defs>
</svg>
