<svg width="24" height="24" viewBox="0 0 24 24" fill="none" xmlns="http://www.w3.org/2000/svg">
<g clip-path="url(#clip0_26_8)">
<path d="M23.271 9.41903C21.72 6.89303 18.192 2.65503 12 2.65503C5.808 2.65503 2.28 6.89303 0.728998 9.41903C0.249526 10.1945 -0.00444794 11.0883 -0.00444794 12C-0.00444794 12.9118 0.249526 13.8055 0.728998 14.581C2.28 17.107 5.808 21.345 12 21.345C18.192 21.345 21.72 17.107 23.271 14.581C23.7505 13.8055 24.0044 12.9118 24.0044 12C24.0044 11.0883 23.7505 10.1945 23.271 9.41903ZM21.566 13.534C20.234 15.7 17.219 19.345 12 19.345C6.781 19.345 3.766 15.7 2.434 13.534C2.14913 13.0731 1.99825 12.5419 1.99825 12C1.99825 11.4582 2.14913 10.927 2.434 10.466C3.766 8.30003 6.781 4.65503 12 4.65503C17.219 4.65503 20.234 8.29603 21.566 10.466C21.8509 10.927 22.0017 11.4582 22.0017 12C22.0017 12.5419 21.8509 13.0731 21.566 13.534Z" fill="white"/>
<path d="M12 7C11.0111 7 10.0444 7.29324 9.22215 7.84265C8.3999 8.39206 7.75904 9.17295 7.3806 10.0866C7.00216 11.0002 6.90315 12.0055 7.09607 12.9755C7.289 13.9454 7.7652 14.8363 8.46446 15.5355C9.16373 16.2348 10.0546 16.711 11.0245 16.9039C11.9945 17.0969 12.9998 16.9978 13.9134 16.6194C14.827 16.241 15.6079 15.6001 16.1573 14.7779C16.7068 13.9556 17 12.9889 17 12C16.9984 10.6744 16.4711 9.40356 15.5338 8.46622C14.5964 7.52888 13.3256 7.00159 12 7ZM12 15C11.4067 15 10.8266 14.8241 10.3333 14.4944C9.83994 14.1648 9.45542 13.6962 9.22836 13.1481C9.0013 12.5999 8.94189 11.9967 9.05764 11.4147C9.1734 10.8328 9.45912 10.2982 9.87868 9.87868C10.2982 9.45912 10.8328 9.1734 11.4147 9.05764C11.9967 8.94189 12.5999 9.0013 13.148 9.22836C13.6962 9.45542 14.1648 9.83994 14.4944 10.3333C14.8241 10.8266 15 11.4067 15 12C15 12.7957 14.6839 13.5587 14.1213 14.1213C13.5587 14.6839 12.7956 15 12 15Z" fill="white"/>
</g>
<defs>
<clipPath id="clip0_26_8">
<rect width="24" height="24" fill="white"/>
</clipPath>
</defs>
</svg>
