<svg width="24" height="24" viewBox="0 0 24 24" fill="none" xmlns="http://www.w3.org/2000/svg">
<g clip-path="url(#clip0_9_51)">
<path d="M23.704 10.806C23.313 10.415 22.681 10.415 22.29 10.806L21.741 11.355L12.659 2.27297L13.208 1.72397C13.599 1.33297 13.599 0.700974 13.208 0.309974C12.817 -0.0810264 12.185 -0.0810264 11.794 0.309974L4.79401 7.30997C4.40301 7.70097 4.40301 8.33297 4.79401 8.72397C4.98901 8.91897 5.24501 9.01697 5.50101 9.01697C5.75701 9.01697 6.01301 8.91897 6.20801 8.72397L6.78901 8.14297L10.616 11.97L0.293006 22.293C-0.0979941 22.684 -0.0979941 23.316 0.293006 23.707C0.488006 23.902 0.744006 24 1.00001 24C1.25601 24 1.51201 23.902 1.70701 23.707L12.03 13.384L15.871 17.225L15.291 17.805C14.9 18.196 14.9 18.828 15.291 19.219C15.486 19.414 15.742 19.512 15.998 19.512C16.254 19.512 16.51 19.414 16.705 19.219L23.705 12.219C24.096 11.828 24.096 11.196 23.705 10.805L23.704 10.806ZM14.616 13.143L10.944 9.47097L13.986 6.42897L17.658 10.101C16.869 10.89 15.463 12.296 14.616 13.143ZM11.245 3.68697L12.572 5.01397L9.53001 8.05597L8.20301 6.72897L11.245 3.68697ZM16.031 14.557C16.88 13.708 18.285 12.303 19.073 11.515L20.327 12.769L17.285 15.811L16.031 14.557Z" fill="white"/>
</g>
<defs>
<clipPath id="clip0_9_51">
<rect width="24" height="24" fill="white"/>
</clipPath>
</defs>
</svg>
