<svg width="24" height="24" viewBox="0 0 24 24" fill="none" xmlns="http://www.w3.org/2000/svg">
<g clip-path="url(#clip0_9_43)">
<path d="M17 24H7.00498C6.4267 23.9997 5.85531 23.8744 5.32993 23.6328C4.80454 23.3912 4.33757 23.0389 3.96098 22.6C3.58969 22.1707 3.31553 21.6663 3.15726 21.1212C2.99899 20.5762 2.96035 20.0034 3.04398 19.442C3.58089 16.5175 5.14095 13.8795 7.44498 12C5.14092 10.1199 3.58119 7.48109 3.04498 4.556C2.96152 3.99502 3.00015 3.42262 3.15824 2.87794C3.31633 2.33326 3.59015 1.82913 3.96098 1.4C4.33757 0.961146 4.80454 0.608844 5.32993 0.36721C5.85531 0.125575 6.4267 0.000313842 7.00498 0L17 0C17.5782 0.000512143 18.1496 0.125862 18.6749 0.367483C19.2003 0.609104 19.6673 0.9613 20.044 1.4C20.4149 1.82895 20.6889 2.33285 20.8473 2.87732C21.0057 3.42179 21.0448 3.99403 20.962 4.555C20.4203 7.48095 18.8571 10.1194 16.551 12C18.8557 13.8822 20.4172 16.5217 20.957 19.448C21.0399 20.0091 21.0008 20.5815 20.8424 21.1262C20.684 21.6708 20.4099 22.1749 20.039 22.604C19.6624 23.0413 19.1961 23.3924 18.6717 23.6333C18.1472 23.8742 17.5771 23.9993 17 24ZM17 2H7.00498C6.71492 1.99982 6.42823 2.06227 6.16452 2.18308C5.9008 2.30389 5.66628 2.48022 5.47698 2.7C5.29214 2.91043 5.15554 3.15874 5.07677 3.42753C4.998 3.69632 4.97896 3.97908 5.02098 4.256C5.39698 6.756 6.94498 9.096 9.62098 11.213C9.73923 11.3066 9.83476 11.4258 9.90043 11.5615C9.96611 11.6973 10.0002 11.8462 10.0002 11.997C10.0002 12.1478 9.96611 12.2967 9.90043 12.4325C9.83476 12.5682 9.73923 12.6874 9.62098 12.781C6.94498 14.9 5.39998 17.242 5.02098 19.741C4.9785 20.0184 4.99732 20.3017 5.0761 20.5711C5.15488 20.8404 5.29172 21.0892 5.47698 21.3C5.66628 21.5198 5.9008 21.6961 6.16452 21.8169C6.42823 21.9377 6.71492 22.0002 7.00498 22H17C17.2901 22.0002 17.5768 21.9378 17.8405 21.817C18.1042 21.6962 18.3387 21.5198 18.528 21.3C18.7128 21.0899 18.8494 20.842 18.9281 20.5735C19.0069 20.3051 19.026 20.0226 18.984 19.746C18.611 17.259 17.064 14.917 14.384 12.784C14.2665 12.6903 14.1716 12.5714 14.1064 12.436C14.0411 12.3006 14.0073 12.1523 14.0073 12.002C14.0073 11.8517 14.0411 11.7034 14.1064 11.568C14.1716 11.4326 14.2665 11.3137 14.384 11.22C17.065 9.087 18.612 6.745 18.984 4.257C19.0258 3.97955 19.0062 3.69629 18.9266 3.42725C18.8469 3.1582 18.7091 2.90994 18.523 2.7C18.3343 2.4808 18.1006 2.30482 17.8378 2.18403C17.575 2.06324 17.2892 2.00047 17 2ZM15.681 20H8.31798C8.15436 19.9999 7.99326 19.9597 7.8488 19.8829C7.70434 19.806 7.58095 19.6949 7.48944 19.5593C7.39793 19.4236 7.3411 19.2676 7.32393 19.1049C7.30676 18.9422 7.32979 18.7777 7.39098 18.626C8.17406 16.9351 9.36719 15.4666 10.862 14.354L11.38 13.942C11.5569 13.8012 11.7764 13.7246 12.0025 13.7246C12.2286 13.7246 12.448 13.8012 12.625 13.942L13.134 14.348C14.6267 15.465 15.8198 16.934 16.607 18.624C16.6686 18.7758 16.6919 18.9403 16.675 19.1033C16.6581 19.2662 16.6014 19.4224 16.51 19.5583C16.4185 19.6942 16.2951 19.8055 16.1506 19.8826C16.006 19.9596 15.8448 19.9999 15.681 20ZM10.034 18H13.962C13.3914 17.2563 12.7326 16.5847 12 16C11.2641 16.5824 10.6037 17.2543 10.034 18Z" fill="white"/>
</g>
<defs>
<clipPath id="clip0_9_43">
<rect width="24" height="24" fill="white"/>
</clipPath>
</defs>
</svg>
