<svg width="24" height="24" viewBox="0 0 24 24" fill="none" xmlns="http://www.w3.org/2000/svg">
<g clip-path="url(#clip0_9_43)">
<path d="M17 24H7.00501C6.42673 23.9997 5.85534 23.8744 5.32996 23.6328C4.80457 23.3912 4.3376 23.0389 3.96101 22.6C3.58973 22.1707 3.31556 21.6663 3.15729 21.1212C2.99903 20.5762 2.96038 20.0034 3.04401 19.442C3.58093 16.5175 5.14098 13.8795 7.44501 12C5.14095 10.1199 3.58122 7.48109 3.04501 4.556C2.96155 3.99502 3.00018 3.42262 3.15827 2.87794C3.31636 2.33326 3.59018 1.82913 3.96101 1.4C4.3376 0.961146 4.80457 0.608844 5.32996 0.36721C5.85534 0.125575 6.42673 0.000313842 7.00501 0L17 0C17.5783 0.000512143 18.1496 0.125862 18.6749 0.367483C19.2003 0.609104 19.6673 0.9613 20.044 1.4C20.4149 1.82895 20.6889 2.33285 20.8473 2.87732C21.0057 3.42179 21.0449 3.99403 20.962 4.555C20.4203 7.48095 18.8571 10.1194 16.551 12C18.8558 13.8822 20.4172 16.5217 20.957 19.448C21.0399 20.0091 21.0009 20.5815 20.8424 21.1262C20.684 21.6708 20.41 22.1749 20.039 22.604C19.6625 23.0413 19.1961 23.3924 18.6717 23.6333C18.1473 23.8742 17.5771 23.9993 17 24ZM17 2H7.00501C6.71495 1.99982 6.42826 2.06227 6.16455 2.18308C5.90083 2.30389 5.66631 2.48022 5.47701 2.7C5.29217 2.91043 5.15557 3.15874 5.0768 3.42753C4.99803 3.69632 4.97899 3.97908 5.02101 4.256C5.39701 6.756 6.94501 9.096 9.62101 11.213C9.73926 11.3066 9.83479 11.4258 9.90046 11.5615C9.96614 11.6973 10.0003 11.8462 10.0003 11.997C10.0003 12.1478 9.96614 12.2967 9.90046 12.4325C9.83479 12.5682 9.73926 12.6874 9.62101 12.781C6.94501 14.9 5.40001 17.242 5.02101 19.741C4.97854 20.0184 4.99735 20.3017 5.07613 20.5711C5.15491 20.8404 5.29175 21.0892 5.47701 21.3C5.66631 21.5198 5.90083 21.6961 6.16455 21.8169C6.42826 21.9377 6.71495 22.0002 7.00501 22H17C17.2901 22.0002 17.5768 21.9378 17.8405 21.817C18.1042 21.6962 18.3388 21.5198 18.528 21.3C18.7128 21.0899 18.8494 20.842 18.9282 20.5735C19.007 20.3051 19.026 20.0226 18.984 19.746C18.611 17.259 17.064 14.917 14.384 12.784C14.2665 12.6903 14.1716 12.5714 14.1064 12.436C14.0412 12.3006 14.0073 12.1523 14.0073 12.002C14.0073 11.8517 14.0412 11.7034 14.1064 11.568C14.1716 11.4326 14.2665 11.3137 14.384 11.22C17.065 9.087 18.612 6.745 18.984 4.257C19.0259 3.97955 19.0063 3.69629 18.9266 3.42725C18.847 3.1582 18.7092 2.90994 18.523 2.7C18.3343 2.4808 18.1006 2.30482 17.8378 2.18403C17.575 2.06324 17.2892 2.00047 17 2ZM15.681 20H8.31801C8.15439 19.9999 7.99329 19.9597 7.84883 19.8829C7.70437 19.806 7.58098 19.6949 7.48947 19.5593C7.39796 19.4236 7.34113 19.2676 7.32396 19.1049C7.3068 18.9422 7.32982 18.7777 7.39101 18.626C8.17409 16.9351 9.36722 15.4666 10.862 14.354L11.38 13.942C11.557 13.8012 11.7764 13.7246 12.0025 13.7246C12.2286 13.7246 12.4481 13.8012 12.625 13.942L13.134 14.348C14.6267 15.465 15.8198 16.934 16.607 18.624C16.6686 18.7758 16.692 18.9403 16.675 19.1033C16.6581 19.2662 16.6015 19.4224 16.51 19.5583C16.4186 19.6942 16.2952 19.8055 16.1506 19.8826C16.0061 19.9596 15.8448 19.9999 15.681 20ZM10.034 18H13.962C13.3914 17.2563 12.7326 16.5847 12 16C11.2642 16.5824 10.6038 17.2543 10.034 18Z" fill="white"/>
</g>
<defs>
<clipPath id="clip0_9_43">
<rect width="24" height="24" fill="white"/>
</clipPath>
</defs>
</svg>
