<svg width="24" height="24" viewBox="0 0 24 24" fill="none" xmlns="http://www.w3.org/2000/svg">
<g clip-path="url(#clip0_9_91)">
<path d="M7.83499 16.17C7.60499 15.94 7.38899 15.688 7.19399 15.422C6.86899 14.976 6.96699 14.35 7.41399 14.025C7.85999 13.7 8.48499 13.798 8.81099 14.244C8.93999 14.422 9.08499 14.593 9.24799 14.755C10.051 15.558 11.118 16 12.253 16C13.388 16 14.456 15.558 15.258 14.755L20.758 9.25503C22.415 7.59803 22.415 4.90103 20.758 3.24403C19.101 1.58703 16.404 1.58703 14.747 3.24403L13.689 4.30203C13.298 4.69303 12.666 4.69303 12.275 4.30203C11.884 3.91103 11.884 3.27903 12.275 2.88803L13.333 1.83003C15.77 -0.607974 19.735 -0.607974 22.172 1.83003C24.609 4.26703 24.609 8.23203 22.172 10.669L16.672 16.169C15.492 17.35 13.922 18 12.253 18C10.584 18 9.01399 17.35 7.83499 16.17ZM6.25299 24C7.92299 24 9.49199 23.35 10.672 22.169L11.73 21.111C12.121 20.721 12.121 20.088 11.73 19.697C11.34 19.306 10.707 19.307 10.316 19.697L9.25699 20.755C8.45399 21.558 7.38699 22 6.25199 22C5.11699 22 4.04999 21.558 3.24699 20.755C2.44399 19.952 2.00199 18.885 2.00199 17.75C2.00199 16.615 2.44399 15.547 3.24699 14.745L8.74699 9.24503C9.54999 8.44203 10.617 8.00003 11.752 8.00003C12.887 8.00003 13.955 8.44203 14.757 9.24503C14.917 9.40603 15.063 9.57703 15.193 9.75503C15.517 10.202 16.142 10.302 16.59 9.97603C17.037 9.65103 17.136 9.02603 16.811 8.57903C16.621 8.31703 16.406 8.06603 16.172 7.83203C14.991 6.65003 13.421 6.00003 11.752 6.00003C10.083 6.00003 8.51299 6.65003 7.33299 7.83103L1.83399 13.331C0.652991 14.511 0.00299072 16.081 0.00299072 17.75C0.00299072 19.419 0.652991 20.989 1.83399 22.169C3.01399 23.35 4.58299 24 6.25299 24Z" fill="white"/>
</g>
<defs>
<clipPath id="clip0_9_91">
<rect width="24" height="24" fill="white"/>
</clipPath>
</defs>
</svg>
