<svg width="24" height="24" viewBox="0 0 24 24" fill="none" xmlns="http://www.w3.org/2000/svg">
<g clip-path="url(#clip0_9_37)">
<path d="M21 12C20.448 12 20 12.447 20 13C20 17.963 15.962 22 11 22H10C8.89701 22 8.00001 21.103 8.00001 20V13.387L15.316 10.948C15.84 10.774 16.123 10.208 15.948 9.683C15.773 9.16 15.208 8.873 14.683 9.051L7.99901 11.279V9.386L15.315 6.947C15.839 6.773 16.122 6.207 15.947 5.682C15.772 5.159 15.207 4.873 14.682 5.05L7.99801 7.278V1C7.99801 0.447 7.55001 0 6.99801 0C6.44601 0 5.99801 0.447 5.99801 1V7.946L2.68201 9.051C2.15801 9.225 1.87501 9.791 2.05001 10.316C2.19001 10.735 2.58001 11 2.99901 11C3.10301 11 3.21001 10.983 3.31501 10.948L5.99901 10.053V11.946L2.68301 13.051C2.15901 13.225 1.87601 13.791 2.05101 14.316C2.19101 14.735 2.58101 15 3.00001 15C3.10401 15 3.21101 14.983 3.31601 14.948L6.00001 14.053V19.999C6.00001 22.205 7.79401 23.999 10 23.999H11C17.065 23.999 22 19.064 22 12.999C22 12.446 21.552 11.999 21 11.999V12Z" fill="white"/>
</g>
<defs>
<clipPath id="clip0_9_37">
<rect width="24" height="24" fill="white"/>
</clipPath>
</defs>
</svg>
