<svg width="24" height="24" viewBox="0 0 24 24" fill="none" xmlns="http://www.w3.org/2000/svg">
<g clip-path="url(#clip0_9_61)">
<path d="M18 9.06401C18.0002 8.66177 17.9207 8.26348 17.7662 7.89208C17.6118 7.52068 17.3854 7.18352 17.1 6.90001C16.5161 6.34286 15.7401 6.03201 14.933 6.03201C14.1259 6.03201 13.3499 6.34286 12.766 6.90001L0.900009 18.769C0.358428 19.3497 0.0634503 20.118 0.0772451 20.912C0.09104 21.7059 0.412529 22.4635 0.973957 23.0251C1.53539 23.5866 2.2929 23.9083 3.08685 23.9223C3.88079 23.9363 4.64916 23.6415 5.23001 23.1L17.1 11.231C17.3858 10.9472 17.6125 10.6096 17.767 10.2376C17.9215 9.86566 18.0007 9.46677 18 9.06401ZM3.81601 21.688C3.61386 21.8807 3.34529 21.9882 3.06601 21.9882C2.78673 21.9882 2.51816 21.8807 2.31601 21.688C2.11742 21.4889 2.0059 21.2192 2.0059 20.938C2.0059 20.6568 2.11742 20.3871 2.31601 20.188L10.085 12.418L11.59 13.923L3.81601 21.688ZM15.688 9.81601L13 12.505L11.5 11L14.189 8.31201C14.2849 8.20251 14.4022 8.11385 14.5337 8.05154C14.6652 7.98922 14.8081 7.95458 14.9536 7.94975C15.099 7.94492 15.2439 7.97002 15.3793 8.02347C15.5147 8.07693 15.6376 8.15761 15.7405 8.26051C15.8434 8.36342 15.9241 8.48636 15.9776 8.62172C16.031 8.75708 16.0561 8.90198 16.0513 9.04743C16.0464 9.19289 16.0118 9.3358 15.9495 9.46732C15.8872 9.59883 15.7985 9.71616 15.689 9.81201L15.688 9.81601ZM4.86301 2.85501L6.41301 2.41301L6.85501 0.863012C6.92621 0.614297 7.07647 0.395529 7.28305 0.239792C7.48963 0.0840547 7.7413 -0.000183105 8.00001 -0.000183105C8.25872 -0.000183105 8.51039 0.0840547 8.71697 0.239792C8.92355 0.395529 9.0738 0.614297 9.14501 0.863012L9.58701 2.41301L11.137 2.85501C11.3857 2.92622 11.6045 3.07647 11.7602 3.28305C11.916 3.48963 12.0002 3.7413 12.0002 4.00001C12.0002 4.25872 11.916 4.51039 11.7602 4.71697C11.6045 4.92355 11.3857 5.07381 11.137 5.14501L9.58701 5.58701L9.14501 7.13701C9.0738 7.38573 8.92355 7.60449 8.71697 7.76023C8.51039 7.91597 8.25872 8.00021 8.00001 8.00021C7.7413 8.00021 7.48963 7.91597 7.28305 7.76023C7.07647 7.60449 6.92621 7.38573 6.85501 7.13701L6.41301 5.58701L4.86301 5.14501C4.61429 5.07381 4.39553 4.92355 4.23979 4.71697C4.08405 4.51039 3.99981 4.25872 3.99981 4.00001C3.99981 3.7413 4.08405 3.48963 4.23979 3.28305C4.39553 3.07647 4.61429 2.92622 4.86301 2.85501ZM23.137 17.145L21.587 17.587L21.145 19.137C21.0738 19.3857 20.9236 19.6045 20.717 19.7602C20.5104 19.916 20.2587 20.0002 20 20.0002C19.7413 20.0002 19.4896 19.916 19.283 19.7602C19.0765 19.6045 18.9262 19.3857 18.855 19.137L18.413 17.587L16.863 17.145C16.6143 17.0738 16.3955 16.9236 16.2398 16.717C16.0841 16.5104 15.9998 16.2587 15.9998 16C15.9998 15.7413 16.0841 15.4896 16.2398 15.2831C16.3955 15.0765 16.6143 14.9262 16.863 14.855L18.413 14.413L18.855 12.863C18.9262 12.6143 19.0765 12.3955 19.283 12.2398C19.4896 12.0841 19.7413 11.9998 20 11.9998C20.2587 11.9998 20.5104 12.0841 20.717 12.2398C20.9236 12.3955 21.0738 12.6143 21.145 12.863L21.587 14.413L23.137 14.855C23.3857 14.9262 23.6045 15.0765 23.7602 15.2831C23.916 15.4896 24.0002 15.7413 24.0002 16C24.0002 16.2587 23.916 16.5104 23.7602 16.717C23.6045 16.9236 23.3857 17.0738 23.137 17.145ZM17.755 2.50001L19.111 2.11301L19.5 0.755012C19.5633 0.538829 19.695 0.348984 19.8753 0.213925C20.0555 0.078866 20.2747 0.00586699 20.5 0.00586699C20.7253 0.00586699 20.9445 0.078866 21.1248 0.213925C21.305 0.348984 21.4367 0.538829 21.5 0.755012L21.887 2.11101L23.243 2.49801C23.4592 2.56132 23.649 2.69298 23.7841 2.87327C23.9192 3.05355 23.9922 3.27275 23.9922 3.49801C23.9922 3.72327 23.9192 3.94247 23.7841 4.12276C23.649 4.30304 23.4592 4.4347 23.243 4.49801L21.887 4.88501L21.5 6.24401C21.4367 6.4602 21.305 6.65004 21.1248 6.7851C20.9445 6.92016 20.7253 6.99316 20.5 6.99316C20.2747 6.99316 20.0555 6.92016 19.8753 6.7851C19.695 6.65004 19.5633 6.4602 19.5 6.24401L19.113 4.88901L17.755 4.50001C17.5388 4.4367 17.349 4.30504 17.2139 4.12476C17.0789 3.94447 17.0059 3.72527 17.0059 3.50001C17.0059 3.27475 17.0789 3.05555 17.2139 2.87527C17.349 2.69498 17.5388 2.56332 17.755 2.50001Z" fill="white"/>
</g>
<defs>
<clipPath id="clip0_9_61">
<rect width="24" height="24" fill="white"/>
</clipPath>
</defs>
</svg>
