<svg width="24" height="24" viewBox="0 0 24 24" fill="none" xmlns="http://www.w3.org/2000/svg">
<g clip-path="url(#clip0_9_63)">
<path d="M19 0H10C7.243 0 5 2.243 5 5V6H4.5C2.019 6 0 8.019 0 10.5V20.5C0 22.429 1.569 23.999 3.499 24H19C21.757 24 24 21.757 24 19V5C24 2.243 21.757 0 19 0ZM5 20.5C5 21.327 4.327 22 3.5 22C2.673 22 2 21.327 2 20.5V10.5C2 9.122 3.122 8 4.5 8H5V20.5ZM22 19C22 20.654 20.654 22 19 22H6.662C6.878 21.545 7 21.037 7 20.5V5C7 3.346 8.346 2 10 2H19C20.654 2 22 3.346 22 5V19ZM20 7C20 7.552 19.552 8 19 8H16C15.448 8 15 7.552 15 7C15 6.448 15.448 6 16 6H19C19.552 6 20 6.448 20 7ZM20 11C20 11.552 19.552 12 19 12H10C9.448 12 9 11.552 9 11C9 10.448 9.448 10 10 10H19C19.552 10 20 10.448 20 11ZM20 15C20 15.552 19.552 16 19 16H10C9.448 16 9 15.552 9 15C9 14.448 9.448 14 10 14H19C19.552 14 20 14.448 20 15ZM20 19C20 19.552 19.552 20 19 20H10C9.448 20 9 19.552 9 19C9 18.448 9.448 18 10 18H19C19.552 18 20 18.448 20 19ZM9 7V5C9 4.448 9.448 4 10 4H12C12.552 4 13 4.448 13 5V7C13 7.552 12.552 8 12 8H10C9.448 8 9 7.552 9 7Z" fill="white"/>
</g>
<defs>
<clipPath id="clip0_9_63">
<rect width="24" height="24" fill="white"/>
</clipPath>
</defs>
</svg>
