<svg width="24" height="24" viewBox="0 0 24 24" fill="none" xmlns="http://www.w3.org/2000/svg">
<g clip-path="url(#clip0_9_20)">
<path d="M23.2 0.800003C22.8292 0.426016 22.3576 0.167915 21.8427 0.0571259C21.3278 -0.0536636 20.7918 -0.0123615 20.3 0.176003L3.15499 6.929C2.03462 7.37208 1.11305 8.20659 0.561336 9.27765C0.00962383 10.3487 -0.134757 11.5836 0.154993 12.753C0.882026 15.4068 2.28719 17.8257 4.23232 19.7719C6.17745 21.7181 8.59559 23.1245 11.249 23.853C12.4196 24.1409 13.655 23.9947 14.7261 23.4414C15.7971 22.8881 16.6313 21.9653 17.074 20.844L23.832 3.672C24.0142 3.18324 24.0515 2.65227 23.9394 2.14282C23.8273 1.63338 23.5706 1.16712 23.2 0.800003ZM11.746 21.911C9.43703 21.2773 7.33268 20.0538 5.63971 18.3607C3.94675 16.6675 2.72344 14.563 2.08999 12.254C1.94392 11.6582 1.98727 11.0317 2.21401 10.4617C2.44075 9.89174 2.83959 9.40665 3.35499 9.074C3.45837 12.1097 4.71033 14.993 6.85786 17.141C9.00539 19.2891 11.8883 20.5418 14.924 20.646C14.5917 21.1612 14.1069 21.56 13.5373 21.7868C12.9677 22.0135 12.3415 22.0569 11.746 21.911ZM15.773 18.684C9.58199 18.584 5.41799 14.419 5.31699 8.227L21.01 2.047C21.141 1.99677 21.2839 1.98611 21.421 2.01632C21.5581 2.04654 21.6832 2.11632 21.781 2.217C21.8807 2.31028 21.951 2.43071 21.9832 2.56344C22.0154 2.69617 22.008 2.83541 21.962 2.964L21.3 4.645C15.542 2.665 12.358 10.854 17.887 13.313L15.773 18.684ZM18.62 11.452C17.9928 11.1755 17.4969 10.6671 17.2362 10.0331C16.9754 9.39924 16.97 8.68903 17.2211 8.05124C17.4722 7.41346 17.9604 6.89755 18.5833 6.61157C19.2062 6.32558 19.9156 6.2917 20.563 6.517L18.62 11.452Z" fill="white"/>
<path d="M11 9C10.4696 9 9.96086 9.21071 9.58579 9.58579C9.21071 9.96086 9 10.4696 9 11C9 11.5304 9.21071 12.0391 9.58579 12.4142C9.96086 12.7893 10.4696 13 11 13C11.5304 13 12.0391 12.7893 12.4142 12.4142C12.7893 12.0391 13 11.5304 13 11C13 10.4696 12.7893 9.96086 12.4142 9.58579C12.0391 9.21071 11.5304 9 11 9Z" fill="white"/>
</g>
<defs>
<clipPath id="clip0_9_20">
<rect width="24" height="24" fill="white"/>
</clipPath>
</defs>
</svg>
