<svg width="24" height="24" viewBox="0 0 24 24" fill="none" xmlns="http://www.w3.org/2000/svg">
<g clip-path="url(#clip0_9_20)">
<path d="M23.2 0.799988C22.8292 0.426001 22.3576 0.1679 21.8427 0.0571106C21.3279 -0.0536788 20.7919 -0.0123767 20.3 0.175988L3.15502 6.92899C2.03465 7.37206 1.11308 8.20658 0.561367 9.27763C0.00965434 10.3487 -0.134726 11.5835 0.155024 12.753C0.882057 15.4068 2.28722 17.8257 4.23235 19.7719C6.17749 21.7181 8.59562 23.1245 11.249 23.853C12.4197 24.1409 13.655 23.9947 14.7261 23.4414C15.7972 22.8881 16.6313 21.9653 17.074 20.844L23.832 3.67199C24.0143 3.18322 24.0516 2.65225 23.9395 2.14281C23.8274 1.63337 23.5706 1.1671 23.2 0.799988ZM11.746 21.911C9.43707 21.2773 7.33271 20.0538 5.63974 18.3606C3.94678 16.6675 2.72347 14.563 2.09002 12.254C1.94395 11.6582 1.9873 11.0317 2.21404 10.4617C2.44078 9.89173 2.83962 9.40663 3.35502 9.07399C3.4584 12.1097 4.71036 14.9929 6.85789 17.141C9.00542 19.2891 11.8884 20.5418 14.924 20.646C14.5917 21.1612 14.107 21.56 13.5373 21.7867C12.9677 22.0135 12.3415 22.0569 11.746 21.911ZM15.773 18.684C9.58202 18.584 5.41802 14.419 5.31702 8.22699L21.01 2.04699C21.1411 1.99676 21.284 1.98609 21.421 2.01631C21.5581 2.04653 21.6833 2.1163 21.781 2.21699C21.8808 2.31027 21.9511 2.43069 21.9832 2.56342C22.0154 2.69615 22.008 2.83539 21.962 2.96399L21.3 4.64499C15.542 2.66499 12.358 10.854 17.887 13.313L15.773 18.684ZM18.62 11.452C17.9928 11.1755 17.4969 10.667 17.2362 10.0331C16.9754 9.39923 16.97 8.68902 17.2212 8.05123C17.4723 7.41344 17.9604 6.89754 18.5833 6.61155C19.2063 6.32557 19.9157 6.29168 20.563 6.51699L18.62 11.452Z" fill="white"/>
<path d="M11 9C10.4696 9 9.96086 9.21071 9.58579 9.58579C9.21071 9.96086 9 10.4696 9 11C9 11.5304 9.21071 12.0391 9.58579 12.4142C9.96086 12.7893 10.4696 13 11 13C11.5304 13 12.0391 12.7893 12.4142 12.4142C12.7893 12.0391 13 11.5304 13 11C13 10.4696 12.7893 9.96086 12.4142 9.58579C12.0391 9.21071 11.5304 9 11 9Z" fill="white"/>
</g>
<defs>
<clipPath id="clip0_9_20">
<rect width="24" height="24" fill="white"/>
</clipPath>
</defs>
</svg>
