<svg width="24" height="24" viewBox="0 0 24 24" fill="none" xmlns="http://www.w3.org/2000/svg">
<g clip-path="url(#clip0_9_59)">
<path d="M21.1549 19.7409C22.9915 17.5798 23.9999 14.8361 23.9999 11.9999C23.9999 9.16382 22.9915 6.42009 21.1549 4.25894L22.0149 3.39894C22.2024 3.2113 22.3077 2.95685 22.3076 2.69158C22.3075 2.42631 22.2021 2.17194 22.0144 1.98444C21.8268 1.79693 21.5724 1.69164 21.3071 1.69173C21.0418 1.69183 20.7874 1.7973 20.5999 1.98494L19.7399 2.84494C17.5788 1.00836 14.8351 0 11.9989 0C9.16282 0 6.41909 1.00836 4.25794 2.84494L3.39794 1.98494C3.20921 1.80291 2.95653 1.70229 2.69433 1.70475C2.43214 1.70721 2.1814 1.81256 1.99612 1.9981C1.81084 2.18364 1.70585 2.43453 1.70376 2.69673C1.70166 2.95893 1.80264 3.21146 1.98494 3.39994L2.84494 4.25994C1.00836 6.42109 0 9.16482 0 12.0009C0 14.8371 1.00836 17.5808 2.84494 19.7419L1.98494 20.6019C1.88949 20.6943 1.81339 20.8047 1.76107 20.9267C1.70875 21.0487 1.68126 21.18 1.6802 21.3127C1.67914 21.4455 1.70454 21.5772 1.7549 21.7C1.80527 21.8229 1.8796 21.9345 1.97356 22.0283C2.06752 22.1222 2.17922 22.1963 2.30215 22.2465C2.42508 22.2967 2.55678 22.3219 2.68956 22.3207C2.82233 22.3194 2.95353 22.2918 3.0755 22.2393C3.19747 22.1868 3.30776 22.1105 3.39994 22.0149L4.25994 21.1549C6.42109 22.9915 9.16482 23.9999 12.0009 23.9999C14.8371 23.9999 17.5808 22.9915 19.7419 21.1549L20.6019 22.0149C20.7907 22.197 21.0433 22.2976 21.3055 22.2951C21.5677 22.2927 21.8185 22.1873 22.0038 22.0018C22.189 21.8162 22.294 21.5653 22.2961 21.3031C22.2982 21.0409 22.1972 20.7884 22.0149 20.5999L21.1549 19.7409ZM21.9999 11.9999C22.0018 14.3064 21.2022 16.5419 19.7379 18.3239L16.1669 14.7529C16.7101 13.9375 16.9999 12.9797 16.9999 11.9999C16.9999 11.0202 16.7101 10.0623 16.1669 9.24694L19.7379 5.67594C21.2022 7.45801 22.0018 9.69347 21.9999 11.9999ZM8.99994 11.9999C8.99994 11.4066 9.17588 10.8266 9.50553 10.3332C9.83517 9.83988 10.3037 9.45536 10.8519 9.2283C11.4001 9.00124 12.0033 8.94183 12.5852 9.05758C13.1672 9.17334 13.7017 9.45906 14.1213 9.87862C14.5408 10.2982 14.8265 10.8327 14.9423 11.4147C15.058 11.9966 14.9986 12.5998 14.7716 13.148C14.5445 13.6962 14.16 14.1647 13.6666 14.4943C13.1733 14.824 12.5933 14.9999 11.9999 14.9999C11.2043 14.9999 10.4412 14.6839 9.87862 14.1213C9.31601 13.5586 8.99994 12.7956 8.99994 11.9999ZM11.9999 1.99994C14.3064 1.9981 16.5419 2.79769 18.3239 4.26194L14.7529 7.83294C13.9375 7.2898 12.9797 6.99999 11.9999 6.99999C11.0202 6.99999 10.0623 7.2898 9.24694 7.83294L5.67594 4.26194C7.45801 2.79769 9.69347 1.9981 11.9999 1.99994ZM1.99994 11.9999C1.9981 9.69347 2.79769 7.45801 4.26194 5.67594L7.83294 9.24694C7.2898 10.0623 6.99999 11.0202 6.99999 11.9999C6.99999 12.9797 7.2898 13.9375 7.83294 14.7529L4.26194 18.3239C2.79769 16.5419 1.9981 14.3064 1.99994 11.9999ZM11.9999 21.9999C9.69347 22.0018 7.45801 21.2022 5.67594 19.7379L9.24694 16.1669C10.0623 16.7101 11.0202 16.9999 11.9999 16.9999C12.9797 16.9999 13.9375 16.7101 14.7529 16.1669L18.3239 19.7379C16.5419 21.2022 14.3064 22.0018 11.9999 21.9999Z" fill="white"/>
</g>
<defs>
<clipPath id="clip0_9_59">
<rect width="24" height="24" fill="white"/>
</clipPath>
</defs>
</svg>
