<svg width="24" height="24" viewBox="0 0 24 24" fill="none" xmlns="http://www.w3.org/2000/svg">
<g clip-path="url(#clip0_9_85)">
<path d="M23.7068 0.292786C23.5193 0.105315 23.2649 0 22.9998 0C22.7346 0 22.4803 0.105315 22.2928 0.292786L11.9998 10.5858L1.70679 0.292786C1.51926 0.105315 1.26495 0 0.999786 0C0.734622 0 0.480314 0.105315 0.292786 0.292786C0.105315 0.480314 0 0.734622 0 0.999786C0 1.26495 0.105315 1.51926 0.292786 1.70679L10.5858 11.9998L0.292786 22.2928C0.105315 22.4803 0 22.7346 0 22.9998C0 23.2649 0.105315 23.5193 0.292786 23.7068C0.480314 23.8943 0.734622 23.9996 0.999786 23.9996C1.26495 23.9996 1.51926 23.8943 1.70679 23.7068L11.9998 13.4138L22.2928 23.7068C22.4803 23.8943 22.7346 23.9996 22.9998 23.9996C23.2649 23.9996 23.5193 23.8943 23.7068 23.7068C23.8943 23.5193 23.9996 23.2649 23.9996 22.9998C23.9996 22.7346 23.8943 22.4803 23.7068 22.2928L13.4138 11.9998L23.7068 1.70679C23.8943 1.51926 23.9996 1.26495 23.9996 0.999786C23.9996 0.734622 23.8943 0.480314 23.7068 0.292786Z" fill="white"/>
</g>
<defs>
<clipPath id="clip0_9_85">
<rect width="24" height="24" fill="white"/>
</clipPath>
</defs>
</svg>
