<svg width="24" height="24" viewBox="0 0 24 24" fill="none" xmlns="http://www.w3.org/2000/svg">
<g clip-path="url(#clip0_9_49)">
<path d="M24 4C24 1.794 22.206 0 20 0C17.794 0 16 1.794 16 4C16 5.86 17.277 7.428 19 7.873V8C19 9.654 17.654 11 16 11H8C6.875 11 5.836 11.374 5 12.002V7.873C6.723 7.428 8 5.86 8 4C8 1.794 6.206 0 4 0C1.794 0 0 1.794 0 4C0 5.86 1.277 7.428 3 7.873V16.126C1.277 16.571 0 18.139 0 19.999C0 22.205 1.794 23.999 4 23.999C6.206 23.999 8 22.205 8 19.999C8 18.139 6.723 16.571 5 16.126V15.999C5 14.345 6.346 12.999 8 12.999H16C18.757 12.999 21 10.756 21 7.999V7.872C22.723 7.427 24 5.86 24 4ZM2 4C2 2.897 2.897 2 4 2C5.103 2 6 2.897 6 4C6 5.103 5.103 6 4 6C2.897 6 2 5.103 2 4ZM6 20C6 21.103 5.103 22 4 22C2.897 22 2 21.103 2 20C2 18.897 2.897 18 4 18C5.103 18 6 18.897 6 20ZM20 6C18.897 6 18 5.103 18 4C18 2.897 18.897 2 20 2C21.103 2 22 2.897 22 4C22 5.103 21.103 6 20 6Z" fill="white"/>
</g>
<defs>
<clipPath id="clip0_9_49">
<rect width="24" height="24" fill="white"/>
</clipPath>
</defs>
</svg>
