<svg width="24" height="24" viewBox="0 0 24 24" fill="none" xmlns="http://www.w3.org/2000/svg">
<g clip-path="url(#clip0_22_12)">
<path d="M24 12C24 18.62 18.62 24 12 24C5.38 24 0 18.62 0 12C0 5.38 5.38 0 12 0C12.73 0 13.47 0.07 14.18 0.2C14.72 0.3 15.08 0.82 14.98 1.36C14.88 1.9 14.36 2.26 13.82 2.16C13.23 2.05 12.61 2 12 2C6.49 2 2 6.49 2 12C2 17.51 6.49 22 12 22C17.51 22 22 17.51 22 12C22 11.39 21.94 10.78 21.84 10.18C21.74 9.64 22.1 9.12 22.64 9.02C23.19 8.92 23.7 9.28 23.8 9.82C23.93 10.53 24 11.27 24 12ZM12.86 6.06C13.41 6.14 13.91 5.76 13.99 5.21C14.07 4.66 13.69 4.16 13.14 4.08C12.76 4.03 12.38 4 12 4C7.59 4 4 7.59 4 12C4 16.41 7.59 20 12 20C16.41 20 20 16.41 20 12C20 11.62 19.97 11.24 19.92 10.86C19.84 10.31 19.34 9.93 18.79 10.01C18.24 10.09 17.86 10.59 17.94 11.14C17.98 11.42 18 11.71 18 12C18 15.31 15.31 18 12 18C8.69 18 6 15.31 6 12C6 8.69 8.69 6 12 6C12.29 6 12.58 6.02 12.86 6.06ZM10.67 10.51C11.08 10.14 11.12 9.51 10.75 9.1C10.38 8.69 9.75 8.65 9.34 9.02C8.49 9.78 8.01 10.87 8.01 12C8.01 14.21 9.8 16 12.01 16C13.15 16 14.23 15.51 14.99 14.67C15.36 14.26 15.32 13.63 14.91 13.26C14.5 12.89 13.87 12.93 13.5 13.34C13.12 13.76 12.58 14.01 12.01 14.01C10.91 14.01 10.01 13.11 10.01 12.01C10.01 11.44 10.25 10.9 10.68 10.52L10.67 10.51ZM12.3 10.29C11.91 10.68 11.91 11.31 12.3 11.7C12.5 11.9 12.75 11.99 13.01 11.99C13.27 11.99 13.52 11.89 13.72 11.7L18.43 6.99H21.02C21.29 6.99 21.54 6.88 21.73 6.7L23.73 4.7C24.02 4.41 24.1 3.98 23.95 3.61C23.8 3.24 23.43 2.99 23.03 2.99H21.03V1C21.03 0.6 20.79 0.23 20.41 0.08C20.03 -0.08 19.61 0.01 19.32 0.3L17.32 2.3C17.13 2.49 17.03 2.74 17.03 3.01V5.6L12.32 10.31L12.3 10.29Z" fill="white"/>
</g>
<defs>
<clipPath id="clip0_22_12">
<rect width="24" height="24" fill="white"/>
</clipPath>
</defs>
</svg>
