<svg width="24" height="24" viewBox="0 0 24 24" fill="none" xmlns="http://www.w3.org/2000/svg">
<g clip-path="url(#clip0_9_7)">
<path d="M23 22H5C4.20435 22 3.44129 21.6839 2.87868 21.1213C2.31607 20.5587 2 19.7956 2 19V1C2 0.734784 1.89464 0.48043 1.70711 0.292893C1.51957 0.105357 1.26522 0 1 0C0.734784 0 0.48043 0.105357 0.292893 0.292893C0.105357 0.48043 0 0.734784 0 1L0 19C0.00158786 20.3256 0.528882 21.5964 1.46622 22.5338C2.40356 23.4711 3.67441 23.9984 5 24H23C23.2652 24 23.5196 23.8946 23.7071 23.7071C23.8946 23.5196 24 23.2652 24 23C24 22.7348 23.8946 22.4804 23.7071 22.2929C23.5196 22.1054 23.2652 22 23 22Z" fill="white"/>
<path d="M6 20C6.26522 20 6.51957 19.8946 6.70711 19.7071C6.89464 19.5196 7 19.2652 7 19V12C7 11.7348 6.89464 11.4804 6.70711 11.2929C6.51957 11.1054 6.26522 11 6 11C5.73478 11 5.48043 11.1054 5.29289 11.2929C5.10536 11.4804 5 11.7348 5 12V19C5 19.2652 5.10536 19.5196 5.29289 19.7071C5.48043 19.8946 5.73478 20 6 20Z" fill="white"/>
<path d="M10 10V19C10 19.2652 10.1054 19.5196 10.2929 19.7071C10.4804 19.8946 10.7348 20 11 20C11.2652 20 11.5196 19.8946 11.7071 19.7071C11.8946 19.5196 12 19.2652 12 19V10C12 9.73478 11.8946 9.48043 11.7071 9.29289C11.5196 9.10536 11.2652 9 11 9C10.7348 9 10.4804 9.10536 10.2929 9.29289C10.1054 9.48043 10 9.73478 10 10Z" fill="white"/>
<path d="M15 13V19C15 19.2652 15.1054 19.5196 15.2929 19.7071C15.4804 19.8946 15.7348 20 16 20C16.2652 20 16.5196 19.8946 16.7071 19.7071C16.8946 19.5196 17 19.2652 17 19V13C17 12.7348 16.8946 12.4804 16.7071 12.2929C16.5196 12.1054 16.2652 12 16 12C15.7348 12 15.4804 12.1054 15.2929 12.2929C15.1054 12.4804 15 12.7348 15 13Z" fill="white"/>
<path d="M20 9V19C20 19.2652 20.1054 19.5196 20.2929 19.7071C20.4804 19.8946 20.7348 20 21 20C21.2652 20 21.5196 19.8946 21.7071 19.7071C21.8946 19.5196 22 19.2652 22 19V9C22 8.73478 21.8946 8.48043 21.7071 8.29289C21.5196 8.10536 21.2652 8 21 8C20.7348 8 20.4804 8.10536 20.2929 8.29289C20.1054 8.48043 20 8.73478 20 9Z" fill="white"/>
<path d="M6 9C6.2652 8.99995 6.51951 8.89455 6.707 8.707L10.293 5.121C10.4836 4.93943 10.7368 4.83815 11 4.83815C11.2632 4.83815 11.5164 4.93943 11.707 5.121L13.879 7.293C14.4416 7.85542 15.2045 8.17136 16 8.17136C16.7955 8.17136 17.5584 7.85542 18.121 7.293L23.707 1.707C23.8892 1.5184 23.99 1.2658 23.9877 1.0036C23.9854 0.741405 23.8802 0.490592 23.6948 0.305184C23.5094 0.119776 23.2586 0.0146072 22.9964 0.0123288C22.7342 0.0100503 22.4816 0.110845 22.293 0.293003L16.707 5.878C16.5195 6.06547 16.2652 6.17079 16 6.17079C15.7348 6.17079 15.4805 6.06547 15.293 5.878L13.121 3.707C12.5584 3.14459 11.7955 2.82864 11 2.82864C10.2045 2.82864 9.44158 3.14459 8.879 3.707L5.293 7.293C5.15319 7.43285 5.05798 7.61102 5.01942 7.80497C4.98085 7.99892 5.00065 8.19996 5.07632 8.38266C5.15199 8.56536 5.28013 8.72152 5.44454 8.8314C5.60895 8.94129 5.80225 8.99996 6 9Z" fill="white"/>
</g>
<defs>
<clipPath id="clip0_9_7">
<rect width="24" height="24" fill="white"/>
</clipPath>
</defs>
</svg>
