<svg width="24" height="24" viewBox="0 0 24 24" fill="none" xmlns="http://www.w3.org/2000/svg">
<g clip-path="url(#clip0_9_83)">
<path d="M12 0C9.009 0 6.187 1.113 4 3.078V1C4 0.447 3.552 0 3 0C2.448 0 2 0.447 2 1V5C2 6.103 2.897 7 4 7H8C8.552 7 9 6.553 9 6C9 5.447 8.552 5 8 5H4.87C6.746 3.087 9.292 2 12 2C17.514 2 22 6.486 22 12C22 17.514 17.514 22 12 22C6.79 22 2.508 18.092 2.041 12.91C1.992 12.36 1.515 11.954 0.954999 12.004C0.404999 12.054 -7.30157e-07 12.54 0.0489993 13.09C0.609999 19.31 5.748 24 12 24C18.617 24 24 18.617 24 12C24 5.383 18.617 0 12 0Z" fill="white"/>
</g>
<defs>
<clipPath id="clip0_9_83">
<rect width="24" height="24" fill="white"/>
</clipPath>
</defs>
</svg>
