<svg width="24" height="24" viewBox="0 0 24 24" fill="none" xmlns="http://www.w3.org/2000/svg">
<path d="M0.88 14.09L4.75 18C4.84296 18.0937 4.95356 18.1681 5.07542 18.2189C5.19728 18.2697 5.32799 18.2958 5.46 18.2958C5.59201 18.2958 5.72272 18.2697 5.84458 18.2189C5.96644 18.1681 6.07704 18.0937 6.17 18C6.26373 17.907 6.33812 17.7964 6.38889 17.6746C6.43966 17.5527 6.4658 17.422 6.4658 17.29C6.4658 17.158 6.43966 17.0273 6.38889 16.9054C6.33812 16.7836 6.26373 16.673 6.17 16.58L2.61 13H23C23.2652 13 23.5196 12.8947 23.7071 12.7071C23.8946 12.5196 24 12.2652 24 12C24 11.7348 23.8946 11.4804 23.7071 11.2929C23.5196 11.1054 23.2652 11 23 11H2.55L6.17 7.38001C6.34729 7.19403 6.44619 6.94695 6.44619 6.69001C6.44619 6.43307 6.34729 6.18598 6.17 6.00001C6.07704 5.90628 5.96644 5.83188 5.84458 5.78112C5.72272 5.73035 5.59201 5.70421 5.46 5.70421C5.32799 5.70421 5.19728 5.73035 5.07542 5.78112C4.95356 5.83188 4.84296 5.90628 4.75 6.00001L0.88 9.85001C0.318198 10.4125 0.00263977 11.175 0.00263977 11.97C0.00263977 12.765 0.318198 13.5275 0.88 14.09Z" fill="white"/>
</svg>
