<svg width="24" height="24" viewBox="0 0 24 24" fill="none" xmlns="http://www.w3.org/2000/svg">
<g clip-path="url(#clip0_9_3)">
<path d="M19 2H18V1C18 0.448 17.553 0 17 0C16.447 0 16 0.448 16 1V2H8V1C8 0.448 7.553 0 7 0C6.447 0 6 0.448 6 1V2H5C2.243 2 0 4.243 0 7V19C0 21.757 2.243 24 5 24H19C21.757 24 24 21.757 24 19V7C24 4.243 21.757 2 19 2ZM5 4H19C20.654 4 22 5.346 22 7V8H2V7C2 5.346 3.346 4 5 4ZM19 22H5C3.346 22 2 20.654 2 19V10H22V19C22 20.654 20.654 22 19 22ZM19 14C19 14.552 18.553 15 18 15H6C5.447 15 5 14.552 5 14C5 13.448 5.447 13 6 13H18C18.553 13 19 13.448 19 14ZM12 18C12 18.552 11.553 19 11 19H6C5.447 19 5 18.552 5 18C5 17.448 5.447 17 6 17H11C11.553 17 12 17.448 12 18Z" fill="white"/>
</g>
<defs>
<clipPath id="clip0_9_3">
<rect width="24" height="24" fill="white"/>
</clipPath>
</defs>
</svg>
