<svg width="24" height="24" viewBox="0 0 24 24" fill="none" xmlns="http://www.w3.org/2000/svg">
<path d="M8.70904 4.79076C8.61531 4.88373 8.54091 4.99433 8.49014 5.11619C8.43938 5.23805 8.41324 5.36875 8.41324 5.50076C8.41324 5.63278 8.43938 5.76348 8.49014 5.88534C8.54091 6.0072 8.61531 6.1178 8.70904 6.21076L13.289 10.7908C13.3828 10.8837 13.4572 10.9943 13.5079 11.1162C13.5587 11.238 13.5848 11.3688 13.5848 11.5008C13.5848 11.6328 13.5587 11.7635 13.5079 11.8853C13.4572 12.0072 13.3828 12.1178 13.289 12.2108L8.70904 16.7908C8.61531 16.8837 8.54091 16.9943 8.49015 17.1162C8.43938 17.238 8.41324 17.3688 8.41324 17.5008C8.41324 17.6328 8.43938 17.7635 8.49015 17.8853C8.54091 18.0072 8.61531 18.1178 8.70904 18.2108C8.8964 18.397 9.14985 18.5016 9.41404 18.5016C9.67822 18.5016 9.93167 18.397 10.119 18.2108L14.709 13.6208C15.2708 13.0583 15.5864 12.2958 15.5864 11.5008C15.5864 10.7058 15.2708 9.94327 14.709 9.38076L10.119 4.79076C9.93167 4.60451 9.67822 4.49997 9.41404 4.49997C9.14985 4.49997 8.8964 4.60451 8.70904 4.79076Z" fill="white"/>
</svg>
