<svg width="24" height="24" viewBox="0 0 24 24" fill="none" xmlns="http://www.w3.org/2000/svg">
<g clip-path="url(#clip0_9_14)">
<path d="M23.9 11.437C23.5071 8.41242 21.9772 5.65093 19.6213 3.71384C17.2655 1.77675 14.2604 0.809409 11.2169 1.00845C8.17339 1.20748 5.31989 2.55796 3.23636 4.78538C1.15283 7.0128 -0.00435653 9.95 -2.23995e-06 13C-0.00576664 14.6325 0.325056 16.2487 0.971813 17.7476C1.61857 19.2466 2.56738 20.5961 3.759 21.712C4.67034 22.5558 5.87115 23.0169 7.113 23H16.88C18.192 23.0031 19.4524 22.4898 20.389 21.571C21.7237 20.2724 22.7363 18.6798 23.3459 16.9202C23.9555 15.1607 24.1453 13.2829 23.9 11.437ZM18.991 20.137C18.4284 20.6913 17.6698 21.0014 16.88 21H7.113C6.38227 21.015 5.67349 20.7499 5.132 20.259C4.13927 19.3291 3.34882 18.2046 2.80995 16.9557C2.27109 15.7068 1.99537 14.3602 2 13C2.00098 11.5922 2.29877 10.2005 2.87394 8.9156C3.4491 7.6307 4.28871 6.48151 5.338 5.543C7.16114 3.8989 9.53103 2.99237 11.986 3C12.3783 3.00016 12.7702 3.0222 13.16 3.066C15.0356 3.28383 16.8111 4.02856 18.2809 5.21392C19.7507 6.39928 20.8546 7.97678 21.4648 9.76369C22.075 11.5506 22.1665 13.4738 21.7287 15.3106C21.2908 17.1473 20.3416 18.8225 18.991 20.142V20.137ZM7.807 17.285C7.99663 17.4706 8.10474 17.724 8.10755 17.9894C8.11037 18.2548 8.00765 18.5104 7.822 18.7C7.63635 18.8896 7.38297 18.9977 7.1176 19.0006C6.85224 19.0034 6.59663 18.9007 6.407 18.715C5.27196 17.6032 4.49369 16.1786 4.17141 14.6227C3.84912 13.0669 3.99741 11.4503 4.59738 9.97912C5.19735 8.50789 6.22182 7.24864 7.54019 6.36188C8.85857 5.47512 10.4111 5.00101 12 5C12.3824 4.99989 12.7644 5.02696 13.143 5.081C13.273 5.09974 13.3981 5.14392 13.511 5.21102C13.624 5.27811 13.7226 5.36679 13.8012 5.47201C13.8799 5.57723 13.9371 5.69691 13.9694 5.82423C14.0018 5.95154 14.0088 6.08399 13.99 6.214C13.9728 6.34473 13.9296 6.47069 13.863 6.58448C13.7964 6.69828 13.7077 6.7976 13.6021 6.87661C13.4965 6.95562 13.3762 7.01272 13.2483 7.04456C13.1203 7.0764 12.9873 7.08233 12.857 7.062C11.6055 6.88324 10.3295 7.10436 9.21109 7.6938C8.0927 8.28325 7.18907 9.21089 6.62916 10.3444C6.06924 11.4778 5.88166 12.7592 6.09318 14.0056C6.30469 15.252 6.9045 16.3997 7.807 17.285ZM19.919 11.857C19.973 12.2356 20.0001 12.6176 20 13C20.0032 14.0657 19.7917 15.1211 19.3779 16.1032C18.9642 17.0852 18.3568 17.9739 17.592 18.716C17.4021 18.9016 17.1462 19.0043 16.8807 19.0013C16.6151 18.9983 16.3617 18.8899 16.176 18.7C15.9903 18.5101 15.8877 18.2542 15.8907 17.9887C15.8937 17.7231 16.0021 17.4697 16.192 17.284C16.8677 16.6254 17.3779 15.8163 17.681 14.9228C17.9841 14.0293 18.0715 13.0767 17.936 12.143C17.8981 11.8803 17.9661 11.6133 18.125 11.4007C18.2839 11.1882 18.5208 11.0474 18.7835 11.0095C19.0462 10.9716 19.3132 11.0396 19.5258 11.1985C19.7383 11.3574 19.8791 11.5943 19.917 11.857H19.919ZM13.926 12.488C14.0463 12.9208 14.02 13.3812 13.851 13.7974C13.6821 14.2136 13.38 14.5621 12.9921 14.7885C12.6042 15.0149 12.1522 15.1065 11.7067 15.0489C11.2612 14.9913 10.8474 14.7878 10.5298 14.4702C10.2122 14.1526 10.0087 13.7388 9.95109 13.2933C9.89351 12.8478 9.98509 12.3958 10.2115 12.0079C10.4379 11.62 10.7864 11.3179 11.2026 11.149C11.6188 10.98 12.0792 10.9537 12.512 11.074L16.293 7.293C16.3852 7.19749 16.4956 7.12131 16.6176 7.0689C16.7396 7.01649 16.8708 6.9889 17.0036 6.98775C17.1364 6.98659 17.2681 7.0119 17.391 7.06218C17.5138 7.11246 17.6255 7.18671 17.7194 7.2806C17.8133 7.3745 17.8875 7.48615 17.9378 7.60905C17.9881 7.73194 18.0134 7.86362 18.0122 7.9964C18.0111 8.12918 17.9835 8.2604 17.9311 8.3824C17.8787 8.50441 17.8025 8.61475 17.707 8.707L13.926 12.488Z" fill="white"/>
</g>
<defs>
<clipPath id="clip0_9_14">
<rect width="24" height="24" fill="white"/>
</clipPath>
</defs>
</svg>
