<svg width="24" height="24" viewBox="0 0 24 24" fill="none" xmlns="http://www.w3.org/2000/svg">
<g clip-path="url(#clip0_9_75)">
<path d="M13.5 6.49998C13.5 6.89781 13.342 7.27934 13.0607 7.56064C12.7794 7.84195 12.3978 7.99998 12 7.99998C11.6022 7.99998 11.2206 7.84195 10.9393 7.56064C10.658 7.27934 10.5 6.89781 10.5 6.49998C10.5 6.10216 10.658 5.72063 10.9393 5.43932C11.2206 5.15802 11.6022 4.99998 12 4.99998C12.3978 4.99998 12.7794 5.15802 13.0607 5.43932C13.342 5.72063 13.5 6.10216 13.5 6.49998ZM24 19V12.34C24.0373 9.25743 22.9071 6.27488 20.8363 3.99115C18.7655 1.70743 15.9075 0.291619 12.836 0.0279816C11.1217 -0.0919607 9.40153 0.157721 7.79204 0.760134C6.18254 1.36255 4.72121 2.30364 3.50691 3.51973C2.29262 4.73582 1.3537 6.19855 0.753674 7.80894C0.153648 9.41933 -0.0934838 11.1398 0.0289998 12.854C0.471 19.208 6.082 24 13.083 24H19C20.3256 23.9984 21.5964 23.4711 22.5338 22.5338C23.4711 21.5964 23.9984 20.3256 24 19ZM12.7 2.02398C15.2665 2.25102 17.6519 3.44089 19.3771 5.35454C21.1023 7.26818 22.0393 9.7638 22 12.34V19C22 19.7956 21.6839 20.5587 21.1213 21.1213C20.5587 21.6839 19.7957 22 19 22H13.083C7.049 22 2.4 18.1 2.025 12.716C1.92655 11.3446 2.11197 9.96758 2.56968 8.67105C3.02739 7.37452 3.74755 6.18631 4.68517 5.18065C5.62279 4.17499 6.75773 3.3735 8.01907 2.82623C9.28041 2.27896 10.6411 1.99769 12.016 1.99998C12.243 1.99998 12.472 2.00898 12.7 2.02398ZM14 18V12C14 11.4696 13.7893 10.9608 13.4142 10.5858C13.0391 10.2107 12.5304 9.99998 12 9.99998H11C10.7348 9.99998 10.4804 10.1053 10.2929 10.2929C10.1054 10.4804 10 10.7348 10 11C10 11.2652 10.1054 11.5196 10.2929 11.7071C10.4804 11.8946 10.7348 12 11 12H12V18C12 18.2652 12.1054 18.5196 12.2929 18.7071C12.4804 18.8946 12.7348 19 13 19C13.2652 19 13.5196 18.8946 13.7071 18.7071C13.8946 18.5196 14 18.2652 14 18Z" fill="white"/>
</g>
<defs>
<clipPath id="clip0_9_75">
<rect width="24" height="24" fill="white"/>
</clipPath>
</defs>
</svg>
