<svg width="24" height="24" viewBox="0 0 24 24" fill="none" xmlns="http://www.w3.org/2000/svg">
<g clip-path="url(#clip0_9_53)">
<path d="M12 0C9.62663 0 7.30655 0.703788 5.33316 2.02236C3.35977 3.34094 1.8217 5.21509 0.913451 7.4078C0.00519943 9.60051 -0.232441 12.0133 0.230582 14.3411C0.693605 16.6689 1.83649 18.8071 3.51472 20.4853C5.19295 22.1635 7.33115 23.3064 9.65892 23.7694C11.9867 24.2324 14.3995 23.9948 16.5922 23.0866C18.7849 22.1783 20.6591 20.6402 21.9776 18.6668C23.2962 16.6935 24 14.3734 24 12C23.9966 8.81846 22.7312 5.76821 20.4815 3.51852C18.2318 1.26883 15.1815 0.00344108 12 0ZM12 22C10.0222 22 8.08879 21.4135 6.4443 20.3147C4.79981 19.2159 3.51809 17.6541 2.76121 15.8268C2.00433 13.9996 1.8063 11.9889 2.19215 10.0491C2.578 8.10929 3.53041 6.32746 4.92894 4.92893C6.32746 3.53041 8.10929 2.578 10.0491 2.19215C11.9889 1.8063 13.9996 2.00433 15.8268 2.7612C17.6541 3.51808 19.2159 4.79981 20.3147 6.4443C21.4135 8.08879 22 10.0222 22 12C21.9971 14.6513 20.9426 17.1931 19.0679 19.0679C17.1931 20.9426 14.6513 21.9971 12 22Z" fill="white"/>
<path d="M12.717 5.06299C12.1403 4.95792 11.5476 4.98087 10.9808 5.13023C10.414 5.27958 9.88691 5.55169 9.43689 5.92729C8.98688 6.30289 8.62491 6.77281 8.37661 7.30378C8.12831 7.83476 7.99974 8.41382 8 8.99999C8 9.2652 8.10536 9.51956 8.29289 9.70709C8.48043 9.89463 8.73478 9.99999 9 9.99999C9.26522 9.99999 9.51957 9.89463 9.70711 9.70709C9.89464 9.51956 10 9.2652 10 8.99999C9.99975 8.70576 10.0644 8.41511 10.1894 8.14874C10.3144 7.88238 10.4966 7.64687 10.723 7.45901C10.9495 7.27116 11.2146 7.13557 11.4994 7.06193C11.7843 6.98829 12.0819 6.97841 12.371 7.03299C12.766 7.10967 13.1293 7.30237 13.4142 7.58647C13.6992 7.87058 13.8931 8.23319 13.971 8.62799C14.0497 9.04239 13.9954 9.47106 13.8158 9.85272C13.6362 10.2344 13.3405 10.5495 12.971 10.753C12.3592 11.1075 11.8536 11.6195 11.5069 12.2358C11.1603 12.8521 10.9852 13.55 11 14.257V15C11 15.2652 11.1054 15.5196 11.2929 15.7071C11.4804 15.8946 11.7348 16 12 16C12.2652 16 12.5196 15.8946 12.7071 15.7071C12.8946 15.5196 13 15.2652 13 15V14.257C12.9875 13.909 13.0668 13.5638 13.2301 13.2563C13.3933 12.9487 13.6347 12.6896 13.93 12.505C14.6545 12.1071 15.238 11.4944 15.6001 10.7514C15.9622 10.0083 16.0853 9.17134 15.9523 8.35551C15.8193 7.53968 15.4368 6.78508 14.8575 6.19548C14.2782 5.60588 13.5304 5.21025 12.717 5.06299Z" fill="white"/>
<path d="M13 18C13 17.4477 12.5523 17 12 17C11.4477 17 11 17.4477 11 18C11 18.5523 11.4477 19 12 19C12.5523 19 13 18.5523 13 18Z" fill="white"/>
</g>
<defs>
<clipPath id="clip0_9_53">
<rect width="24" height="24" fill="white"/>
</clipPath>
</defs>
</svg>
