<svg width="24" height="24" viewBox="0 0 24 24" fill="none" xmlns="http://www.w3.org/2000/svg">
<g clip-path="url(#clip0_9_57)">
<path d="M19 4H5C2.239 4 0 6.238 0 9V15C0 17.761 2.239 20 5 20H19C21.757 20 24 17.757 24 15V9C24 6.243 21.757 4 19 4ZM8.12 16C7.794 16 7.511 15.775 7.438 15.457L7.173 14.3H4.764L4.49 15.461C4.415 15.777 4.134 16 3.809 16C3.358 16 3.025 15.579 3.128 15.14L4.541 9.147C4.742 8.281 5.678 7.741 6.597 8.126C7.036 8.31 7.331 8.732 7.439 9.196L8.802 15.144C8.902 15.582 8.57 16 8.12 16ZM22 15C22 16.654 20.654 18 19 18H12V6H19C20.654 6 22 7.346 22 9V15ZM20.5 9.616V9.637C20.5 9.977 20.224 10.253 19.884 10.253H19.568C19.447 11.528 18.951 12.984 17.961 14.119C18.503 14.448 19.153 14.683 19.945 14.758C20.26 14.788 20.5 15.054 20.5 15.371V15.392C20.5 15.758 20.184 16.04 19.82 16.005C18.683 15.896 17.761 15.516 17.012 14.983C16.259 15.521 15.326 15.898 14.18 16.005C13.816 16.039 13.501 15.757 13.501 15.391V15.37C13.501 15.049 13.749 14.786 14.069 14.756C14.857 14.681 15.507 14.449 16.046 14.121C15.715 13.742 15.439 13.327 15.213 12.894C15 12.486 15.302 11.998 15.762 11.998H15.772C15.998 11.998 16.209 12.12 16.313 12.32C16.498 12.672 16.729 13.011 17.006 13.322C17.824 12.402 18.198 11.214 18.309 10.251H14.118C13.778 10.251 13.502 9.975 13.502 9.635V9.614C13.502 9.274 13.778 8.998 14.118 8.998H16.375V8.614C16.375 8.274 16.651 7.998 16.991 7.998H17.012C17.352 7.998 17.628 8.274 17.628 8.614V8.998H19.885C20.225 8.998 20.501 9.274 20.501 9.614L20.5 9.616ZM6.065 9.463L6.852 12.9H5.095L5.906 9.463C5.915 9.426 5.947 9.4 5.985 9.4C6.023 9.4 6.057 9.426 6.065 9.463Z" fill="white"/>
</g>
<defs>
<clipPath id="clip0_9_57">
<rect width="24" height="24" fill="white"/>
</clipPath>
</defs>
</svg>
